<svg xmlns="http://www.w3.org/2000/svg" viewBox="0 0 32 32">
  <defs>
    <linearGradient id="bg" x1="0" y1="0" x2="32" y2="32" gradientUnits="userSpaceOnUse">
      <stop stop-color="#16A6CC" />
      <stop offset="1" stop-color="#0A6A8E" />
    </linearGradient>
  </defs>
  <rect width="32" height="32" rx="7" fill="url(#bg)" />
  <g
    transform="translate(4 4)"
    fill="none"
    stroke="#fff"
    stroke-width="2.4"
    stroke-linecap="round"
    stroke-linejoin="round"
  >
    <path d="M8 3H7a2 2 0 0 0-2 2v5a2 2 0 0 1-2 2 2 2 0 0 1 2 2v5c0 1.1.9 2 2 2h1" />
    <path d="M16 21h1a2 2 0 0 0 2-2v-5c0-1.1.9-2 2-2a2 2 0 0 1-2-2V5a2 2 0 0 0-2-2h-1" />
  </g>
</svg>
